<svg xmlns="http://www.w3.org/2000/svg" version="1.1" xmlns:xlink="http://www.w3.org/1999/xlink" xmlns:svgjs="http://svgjs.dev/svgjs" width="1500" height="1500" viewBox="0 0 1500 1500"><rect width="1500" height="1500" fill="#ffffff"></rect><g transform="matrix(0.6666666666666666,0,0,0.6666666666666666,249.7216299986875,216.2838709677419)"><svg viewBox="0 0 233 248" data-background-color="#ffffff" preserveAspectRatio="xMidYMid meet" height="1596" width="1500" xmlns="http://www.w3.org/2000/svg" xmlns:xlink="http://www.w3.org/1999/xlink"><g id="tight-bounds" transform="matrix(1,0,0,1,0.06486021030582378,0.4000000000000057)"><svg viewBox="0 0 232.87027957938832 247.2" height="247.2" width="232.87027957938832"><g><svg viewBox="0 0 395.52 419.8584043296437" height="247.2" width="232.87027957938832"><g transform="matrix(1,0,0,1,0,270.19775049204924)"><svg viewBox="0 0 395.52 149.66065383759448" height="149.66065383759448" width="395.52"><g id="textblocktransform"><svg viewBox="0 0 395.52 149.66065383759448" height="149.66065383759448" width="395.52" id="textblock"><g><rect width="75.54432" height="9.528951834766188" y="135.37065183863703" fill="#336a86" data-fill-palette-color="tertiary"></rect><rect width="75.54432" height="9.528951834766188" y="135.37065183863703" x="319.97568" fill="#336a86" data-fill-palette-color="tertiary"></rect></g><g><svg viewBox="0 0 395.52 105.66470158343482" height="105.66470158343482" width="395.52"><g transform="matrix(1,0,0,1,0,0)"><svg width="395.52" viewBox="1.65 -32.25 123.14 32.900000000000006" height="105.66470158343482" data-palette-color="#336a86"><path d="M20.95-1.25L18.35 0.65 14.3-3Q12.5-1.35 10.78-0.38 9.05 0.6 7 0.6L7 0.6Q4.95 0.6 3.3-0.75 1.65-2.1 1.65-4.6L1.65-4.6Q1.65-6.55 2.95-7.88 4.25-9.2 6.25-10 8.25-10.8 10.4-11.2 12.55-11.6 14.25-11.7L14.25-11.7 14.25-16.4Q14.25-20.55 9.45-20.55L9.45-20.55Q8.2-20.55 6.58-20.28 4.95-20 2.95-19.35L2.95-19.35 2.5-20.6Q3.05-21.05 4.35-21.65 5.65-22.25 7.35-22.73 9.05-23.2 10.8-23.2L10.8-23.2Q13.65-23.2 15.2-22.38 16.75-21.55 17.4-20.28 18.05-19 18.2-17.63 18.35-16.25 18.35-15.15L18.35-15.15 18.35-6.65Q18.35-4.95 18.82-3.85 19.3-2.75 19.93-2.15 20.55-1.55 20.95-1.25L20.95-1.25ZM8.9-1.7L8.9-1.7Q10.1-1.95 11.33-2.68 12.55-3.4 13.4-4.17 14.25-4.95 14.25-5.3L14.25-5.3 14.25-10.45Q10.5-10.2 8.28-8.83 6.05-7.45 6.05-5.9L6.05-5.9Q6.05-4.35 6.88-3.23 7.7-2.1 8.9-1.7ZM29.6 0L25.4 0 25.4-22.6 28.3-22.6 29.45-18.4Q30.1-19.5 31.27-20.6 32.45-21.7 33.97-22.53 35.5-23.35 37.1-23.6L37.1-23.6 37.6-20.15Q36.3-20.15 34.8-19.6 33.3-19.05 31.92-18.2 30.55-17.35 29.6-16.45L29.6-16.45 29.6 0ZM46 0L41.85 0 41.85-22.6 46-22.6 46 0ZM43.9-27.05L43.9-27.05Q42.8-27.05 42.07-27.85 41.35-28.65 41.35-29.65L41.35-29.65Q41.35-30.75 42.07-31.5 42.8-32.25 43.9-32.25L43.9-32.25Q44.95-32.25 45.72-31.5 46.5-30.75 46.5-29.65L46.5-29.65Q46.5-28.65 45.72-27.85 44.95-27.05 43.9-27.05ZM58.14 0.6L58.14 0.6Q55.94 0.6 54.02-0.05 52.09-0.7 51.14-1.2L51.14-1.2 51.14-3.1Q51.74-2.8 52.82-2.4 53.89-2 55.17-1.7 56.44-1.4 57.59-1.4L57.59-1.4Q60.24-1.4 61.39-2.6 62.54-3.8 62.54-5.05L62.54-5.05Q62.54-6.55 61.44-7.6 60.34-8.65 58.72-9.53 57.09-10.4 55.44-11.4 53.79-12.4 52.69-13.78 51.59-15.15 51.59-17.2L51.59-17.2Q51.59-18.55 52.27-19.93 52.94-21.3 54.47-22.25 55.99-23.2 58.59-23.2L58.59-23.2Q61.24-23.2 62.97-22.73 64.69-22.25 65.54-21.9L65.54-21.9 65.04-18.6Q63.04-19.7 61.24-20.3 59.44-20.9 58.19-21.1L58.19-21.1Q56.84-21.1 56.04-20.1 55.24-19.1 55.24-18L55.24-18Q55.24-16.55 56.39-15.53 57.54-14.5 59.24-13.6 60.94-12.7 62.62-11.7 64.29-10.7 65.44-9.35 66.59-8 66.59-5.95L66.59-5.95Q66.59-3.25 64.42-1.33 62.24 0.6 58.14 0.6ZM77.74 0.6L77.74 0.6Q75.69 0.6 74.29-0.6 72.89-1.8 72.89-4.65L72.89-4.65 72.89-20.8 68.84-21.6 68.84-22.6 72.89-22.6 72.89-24.4 77.09-27.45 77.09-22.6 83.04-22.6 83.04-20.8 77.09-20.8 77.09-4.4Q77.09-3 77.67-2.2 78.24-1.4 79.84-1.4L79.84-1.4Q80.54-1.4 81.39-1.63 82.24-1.85 83.04-2.15L83.04-2.15 83.04-0.75Q81.94-0.25 80.56 0.18 79.19 0.6 77.74 0.6ZM94.19 0.6L94.19 0.6Q92.14 0.6 90.74-0.6 89.34-1.8 89.34-4.65L89.34-4.65 89.34-20.8 85.29-21.6 85.29-22.6 89.34-22.6 89.34-24.4 93.54-27.45 93.54-22.6 99.49-22.6 99.49-20.8 93.54-20.8 93.54-4.4Q93.54-3 94.11-2.2 94.69-1.4 96.29-1.4L96.29-1.4Q96.99-1.4 97.84-1.63 98.69-1.85 99.49-2.15L99.49-2.15 99.49-0.75Q98.39-0.25 97.01 0.18 95.64 0.6 94.19 0.6ZM112.69 0.6L112.69 0.6Q109.89 0.6 107.59-0.7 105.29-2 103.94-4.53 102.59-7.05 102.59-10.65L102.59-10.65Q102.59-14.2 103.71-16.6 104.84-19 106.66-20.45 108.49-21.9 110.59-22.55 112.69-23.2 114.64-23.2L114.64-23.2Q117.49-23.2 119.79-21.9 122.09-20.6 123.44-18.1 124.79-15.6 124.79-11.95L124.79-11.95Q124.79-8.4 123.64-6 122.49-3.6 120.66-2.15 118.84-0.7 116.74-0.05 114.64 0.6 112.69 0.6ZM113.64-1.1L113.64-1.1Q115.39-1.1 116.64-2.05 117.89-3 118.66-4.53 119.44-6.05 119.81-7.8 120.19-9.55 120.19-11.2L120.19-11.2Q120.19-13.95 119.51-16.23 118.84-18.5 117.26-19.9 115.69-21.3 112.94-21.3L112.94-21.3Q109.94-20.15 108.54-17.3 107.14-14.45 107.14-11.2L107.14-11.2Q107.14-8.55 107.79-6.23 108.44-3.9 109.86-2.5 111.29-1.1 113.64-1.1Z" opacity="1" transform="matrix(1,0,0,1,0,0)" fill="#336a86" class="wordmark-text-0" data-fill-palette-color="primary" id="text-0"></path></svg></g></svg></g><g transform="matrix(1,0,0,1,75.54432,130.60960167444577)"><svg viewBox="0 0 244.43135999999998 19.051052163148704" height="19.051052163148704" width="244.43135999999998"><g transform="matrix(1,0,0,1,8,0)"><svg width="228.43135999999998" viewBox="-0.5 -38.6 630.03 52.55" height="19.051052163148704" data-palette-color="#8eaec4"><path d="M38.2-2.2L38.2 0 24.6 0 24.6-2.2 28.7-3.85 25.15-12.7 12.15-12.7 8.6-3.85 12.6-2.2 12.6 0-0.5 0-0.5-2.2 3.6-3.85 15.9-35.3 21.05-35.3 33.85-3.85 38.2-2.2ZM13.45-16.1L23.85-16.1 18.55-30.15 13.45-16.1ZM51.85-2.15L51.85 0 38.7 0 38.7-2.15 42.9-3.8 42.9-34.65 38.7-34.65 38.7-37.65Q40.65-38.6 43.22-38.6 45.8-38.6 46.7-37.38 47.6-36.15 47.6-33.65L47.6-33.65 47.6-3.8 51.85-2.15ZM67.84-2.15L67.84 0 54.7 0 54.7-2.15 58.9-3.8 58.9-34.65 54.7-34.65 54.7-37.65Q56.65-38.6 59.22-38.6 61.8-38.6 62.7-37.38 63.6-36.15 63.6-33.65L63.6-33.65 63.6-3.8 67.84-2.15ZM97.54 11.4L97.54 13.55 84.39 13.55 84.39 11.4 88.64 9.75 88.64-21.85 84.44-21.85 84.44-24.6Q86.39-25.55 88.72-25.55 91.04-25.55 92.04-24.7 93.04-23.85 93.24-22.2L93.24-22.2Q95.69-25.6 100.54-25.6L100.54-25.6Q104.49-25.6 107.84-22.9L107.84-22.9Q109.54-21.5 110.57-18.93 111.59-16.35 111.59-12.95 111.59-9.55 110.44-6.88 109.29-4.2 107.34-2.65L107.34-2.65Q103.39 0.5 98.14 0.5L98.14 0.5Q96.04 0.5 93.34-0.2L93.34-0.2 93.34 9.75 97.54 11.4ZM98.14-3.45L98.14-3.45Q102.19-3.45 104.47-5.85 106.74-8.25 106.74-12.55 106.74-16.85 104.54-19.28 102.34-21.7 99.84-21.7L99.84-21.7Q95.49-21.7 93.34-18.95L93.34-18.95 93.34-4.35Q96.14-3.45 98.14-3.45ZM136.84-3.4L141.04-3.4 141.04-0.4Q139.09 0.55 136.74 0.55 134.39 0.55 133.36-0.35 132.34-1.25 132.19-2.95L132.19-2.95Q129.44 0.55 124.96 0.55 120.49 0.55 118.19-1.25 115.89-3.05 115.89-6.3L115.89-6.3Q115.89-12.55 124.59-13.5L124.59-13.5 132.14-14.3 132.14-15.75Q132.14-18.65 130.94-20.15 129.74-21.65 127.14-21.65L127.14-21.65Q122.34-21.65 119.34-20.6L119.34-20.6 118.34-20.25 117.44-23.45Q118.84-24.25 121.69-24.93 124.54-25.6 126.99-25.6L126.99-25.6Q132.34-25.6 134.59-23.48 136.84-21.35 136.84-17.5L136.84-17.5 136.84-3.4ZM124.84-10.25Q122.94-10 121.81-9.1 120.69-8.2 120.69-6.68 120.69-5.15 121.91-4.28 123.14-3.4 125.34-3.4L125.34-3.4Q129.49-3.4 132.14-5.65L132.14-5.65 132.14-11.05 124.84-10.25ZM156.59 11.4L156.59 13.55 143.44 13.55 143.44 11.4 147.69 9.75 147.69-21.85 143.49-21.85 143.49-24.6Q145.44-25.55 147.76-25.55 150.09-25.55 151.09-24.7 152.09-23.85 152.29-22.2L152.29-22.2Q154.74-25.6 159.59-25.6L159.59-25.6Q163.54-25.6 166.89-22.9L166.89-22.9Q168.59-21.5 169.61-18.93 170.64-16.35 170.64-12.95 170.64-9.55 169.49-6.88 168.34-4.2 166.39-2.65L166.39-2.65Q162.44 0.5 157.19 0.5L157.19 0.5Q155.09 0.5 152.39-0.2L152.39-0.2 152.39 9.75 156.59 11.4ZM157.19-3.45L157.19-3.45Q161.24-3.45 163.51-5.85 165.79-8.25 165.79-12.55 165.79-16.85 163.59-19.28 161.39-21.7 158.89-21.7L158.89-21.7Q154.54-21.7 152.39-18.95L152.39-18.95 152.39-4.35Q155.19-3.45 157.19-3.45ZM188.03 0.5L188.03 0.5Q182.38 0.5 178.86-2.73 175.33-5.95 175.33-12.15 175.33-18.35 178.93-21.98 182.53-25.6 187.33-25.6L187.33-25.6Q198.73-25.6 198.73-12.1L198.73-12.1 180.18-12.1 180.18-11.85Q180.18-8.3 182.68-5.85 185.18-3.4 189.48-3.4L189.48-3.4Q191.33-3.4 192.98-3.83 194.63-4.25 195.38-4.7L195.38-4.7 196.08-5.1 197.53-2.5Q197.38-2.4 197.11-2.18 196.83-1.95 195.93-1.45 195.03-0.95 193.98-0.55L193.98-0.55Q191.33 0.5 188.03 0.5ZM194.08-15.3Q193.83-18.4 192.06-20.03 190.28-21.65 187.46-21.65 184.63-21.65 182.78-20.08 180.93-18.5 180.38-15.3L180.38-15.3 194.08-15.3ZM215.93-2.15L215.93 0 202.78 0 202.78-2.15 206.98-3.8 206.98-21.65 202.78-21.65 202.78-24.65Q204.73-25.6 207.18-25.6 209.63-25.6 210.58-24.55 211.53-23.5 211.63-21.45L211.63-21.45Q212.13-22.95 213.68-24.15L213.68-24.15Q215.53-25.6 218.58-25.6L218.58-25.6Q219.93-25.6 221.16-25.25 222.38-24.9 222.93-24.55L222.93-24.55 223.53-24.2 223.53-18.3 220.53-18.3 219.88-21.3Q219.58-21.6 218.23-21.6 216.88-21.6 215.63-21.23 214.38-20.85 213.68-20.3L213.68-20.3Q212.28-19.1 211.68-17.85L211.68-17.85 211.68-3.8 215.93-2.15ZM261.23-3.4L265.43-3.4 265.43-0.4Q263.48 0.55 261.13 0.55 258.78 0.55 257.75-0.35 256.73-1.25 256.58-2.95L256.58-2.95Q253.83 0.55 249.35 0.55 244.88 0.55 242.58-1.25 240.28-3.05 240.28-6.3L240.28-6.3Q240.28-12.55 248.98-13.5L248.98-13.5 256.53-14.3 256.53-15.75Q256.53-18.65 255.33-20.15 254.13-21.65 251.53-21.65L251.53-21.65Q246.73-21.65 243.73-20.6L243.73-20.6 242.73-20.25 241.83-23.45Q243.23-24.25 246.08-24.93 248.93-25.6 251.38-25.6L251.38-25.6Q256.73-25.6 258.98-23.48 261.23-21.35 261.23-17.5L261.23-17.5 261.23-3.4ZM249.23-10.25Q247.33-10 246.2-9.1 245.08-8.2 245.08-6.68 245.08-5.15 246.3-4.28 247.53-3.4 249.73-3.4L249.73-3.4Q253.88-3.4 256.53-5.65L256.53-5.65 256.53-11.05 249.23-10.25ZM275.77-10.95Q275.77-6.65 277.07-5.1 278.37-3.55 281.02-3.55 283.67-3.55 285.37-4.35L285.37-4.35 286.37-1.85Q286.17-1.6 285.8-1.2 285.42-0.8 283.92-0.13 282.42 0.55 280.62 0.55L280.62 0.55Q276.07 0.55 273.57-2.02 271.07-4.6 271.07-9.55L271.07-9.55 271.07-21.05 268.42-21.05 268.42-24 273.22-28.8 275.77-28.8 275.77-25 284.17-25 284.17-21.05 275.77-21.05 275.77-10.95ZM323.47-3.4L327.67-3.4 327.67-0.4Q325.72 0.55 323.37 0.55 321.02 0.55 319.99-0.35 318.97-1.25 318.82-2.95L318.82-2.95Q316.07 0.55 311.59 0.55 307.12 0.55 304.82-1.25 302.52-3.05 302.52-6.3L302.52-6.3Q302.52-12.55 311.22-13.5L311.22-13.5 318.77-14.3 318.77-15.75Q318.77-18.65 317.57-20.15 316.37-21.65 313.77-21.65L313.77-21.65Q308.97-21.65 305.97-20.6L305.97-20.6 304.97-20.25 304.07-23.45Q305.47-24.25 308.32-24.93 311.17-25.6 313.62-25.6L313.62-25.6Q318.97-25.6 321.22-23.48 323.47-21.35 323.47-17.5L323.47-17.5 323.47-3.4ZM311.47-10.25Q309.57-10 308.44-9.1 307.32-8.2 307.32-6.68 307.32-5.15 308.54-4.28 309.77-3.4 311.97-3.4L311.97-3.4Q316.12-3.4 318.77-5.65L318.77-5.65 318.77-11.05 311.47-10.25ZM363.16-23.6L363.16-17.85 360.01-17.85 359.31-20.35Q358.01-21.6 355.31-21.6 352.61-21.6 351.14-20.9 349.66-20.2 349.66-19.03 349.66-17.85 350.76-16.82 351.86-15.8 353.01-15.3 354.16-14.8 357.11-13.8 360.06-12.8 361.94-11.15 363.81-9.5 363.81-6.8L363.81-6.8Q363.81-3.2 361.19-1.33 358.56 0.55 355.19 0.55 351.81 0.55 349.39-0.3 346.96-1.15 345.91-2L345.91-2 344.91-2.85 344.91-8.2 347.91-8.2 348.96-5.1Q349.01-4.95 349.76-4.6L349.76-4.6Q352.11-3.4 354.46-3.4 356.81-3.4 358.06-4.13 359.31-4.85 359.31-6.18 359.31-7.5 357.91-8.7 356.51-9.9 353.24-10.88 349.96-11.85 347.74-13.73 345.51-15.6 345.51-18.1L345.51-18.1Q345.51-21.85 348.14-23.73 350.76-25.6 354.91-25.6L354.91-25.6Q356.96-25.6 359.01-25.1 361.06-24.6 362.11-24.1L362.11-24.1 363.16-23.6ZM381.61-2.15L381.61 0 368.46 0 368.46-2.15 372.66-3.8 372.66-21.65 368.46-21.65 368.46-24.65Q370.41-25.6 372.99-25.6 375.56-25.6 376.46-24.38 377.36-23.15 377.36-20.65L377.36-20.65 377.36-3.8 381.61-2.15ZM377.56-31.35Q376.41-30.2 374.76-30.2 373.11-30.2 371.96-31.35 370.81-32.5 370.81-34.15 370.81-35.8 371.96-36.95 373.11-38.1 374.76-38.1 376.41-38.1 377.56-36.95 378.71-35.8 378.71-34.15 378.71-32.5 377.56-31.35ZM414.86-2.15L414.86 0 401.71 0 401.71-2.15 405.71-3.8 405.71-15.75Q405.71-18.7 404.73-20.15 403.76-21.6 401.21-21.6L401.21-21.6Q397.11-21.6 393.86-18.35L393.86-18.35 393.86-3.8 398.11-2.15 398.11 0 384.96 0 384.96-2.15 389.16-3.8 389.16-21.65 384.96-21.65 384.96-24.65Q386.91-25.6 389.41-25.6 391.91-25.6 392.83-24.5 393.76-23.4 393.86-21.2L393.86-21.2Q394.56-22.1 395.96-23.25L395.96-23.25Q398.91-25.6 402.71-25.6 406.51-25.6 408.46-23.43 410.41-21.25 410.41-17.5L410.41-17.5 410.41-3.8 414.86-2.15ZM440.81-16.15L440.81-16.15Q440.81-11.95 437.58-9.4 434.36-6.85 429.81-6.85L429.81-6.85Q427.31-6.85 425.06-7.7L425.06-7.7 422.76-3.55 432.46-3.55Q437.81-3.55 440.21-1.5 442.61 0.55 442.61 4.5 442.61 8.45 439.16 11.2 435.71 13.95 429.51 13.95 423.31 13.95 420.11 11.55 416.91 9.15 416.91 5.48 416.91 1.8 420.51 0.2L420.51 0.2Q418.41-0.5 418.41-2.8L418.41-2.8 418.61-4.05Q421.46-8.4 422.06-9.4L422.06-9.4Q418.81-12 418.81-16.18 418.81-20.35 422.06-22.98 425.31-25.6 429.81-25.6L429.81-25.6Q432.66-25.6 435.31-24.4L435.31-24.4 444.06-25.55 443.91-21.2 438.86-21.65Q440.81-19.3 440.81-16.15ZM421.31 4.95L421.31 4.95Q421.31 7.25 423.43 8.63 425.56 10 429.41 10 433.26 10 435.53 8.55 437.81 7.1 437.81 4.55L437.81 4.55Q437.81 0.45 432.56 0.45L432.56 0.45 423.66 0.5Q421.31 1.8 421.31 4.95ZM429.81-10.6Q432.91-10.6 434.66-12.25 436.41-13.9 436.41-16.2 436.41-18.5 434.66-20.2 432.91-21.9 429.78-21.9 426.66-21.9 424.96-20.23 423.26-18.55 423.26-16.23 423.26-13.9 424.98-12.25 426.71-10.6 429.81-10.6ZM459.7-2.15L459.7 0 446.55 0 446.55-2.15 450.75-3.8 450.75-34.65 446.55-34.65 446.55-37.65Q448.5-38.6 451.08-38.6 453.65-38.6 454.55-37.38 455.45-36.15 455.45-33.65L455.45-33.65 455.45-3.8 459.7-2.15ZM476.15 0.5L476.15 0.5Q470.5 0.5 466.98-2.73 463.45-5.95 463.45-12.15 463.45-18.35 467.05-21.98 470.65-25.6 475.45-25.6L475.45-25.6Q486.85-25.6 486.85-12.1L486.85-12.1 468.3-12.1 468.3-11.85Q468.3-8.3 470.8-5.85 473.3-3.4 477.6-3.4L477.6-3.4Q479.45-3.4 481.1-3.83 482.75-4.25 483.5-4.7L483.5-4.7 484.2-5.1 485.65-2.5Q485.5-2.4 485.23-2.18 484.95-1.95 484.05-1.45 483.15-0.95 482.1-0.55L482.1-0.55Q479.45 0.5 476.15 0.5ZM482.2-15.3Q481.95-18.4 480.18-20.03 478.4-21.65 475.58-21.65 472.75-21.65 470.9-20.08 469.05-18.5 468.5-15.3L468.5-15.3 482.2-15.3ZM517.14 11.4L517.14 13.55 504 13.55 504 11.4 508.25 9.75 508.25-21.85 504.05-21.85 504.05-24.6Q506-25.55 508.32-25.55 510.65-25.55 511.65-24.7 512.64-23.85 512.85-22.2L512.85-22.2Q515.3-25.6 520.14-25.6L520.14-25.6Q524.1-25.6 527.45-22.9L527.45-22.9Q529.14-21.5 530.17-18.93 531.2-16.35 531.2-12.95 531.2-9.55 530.05-6.88 528.89-4.2 526.95-2.65L526.95-2.65Q523 0.5 517.75 0.5L517.75 0.5Q515.64 0.5 512.95-0.2L512.95-0.2 512.95 9.75 517.14 11.4ZM517.75-3.45L517.75-3.45Q521.8-3.45 524.07-5.85 526.35-8.25 526.35-12.55 526.35-16.85 524.14-19.28 521.95-21.7 519.45-21.7L519.45-21.7Q515.1-21.7 512.95-18.95L512.95-18.95 512.95-4.35Q515.75-3.45 517.75-3.45ZM556.44-3.4L560.64-3.4 560.64-0.4Q558.69 0.55 556.34 0.55 553.99 0.55 552.97-0.35 551.94-1.25 551.79-2.95L551.79-2.95Q549.04 0.55 544.57 0.55 540.09 0.55 537.79-1.25 535.49-3.05 535.49-6.3L535.49-6.3Q535.49-12.55 544.19-13.5L544.19-13.5 551.74-14.3 551.74-15.75Q551.74-18.65 550.54-20.15 549.34-21.65 546.74-21.65L546.74-21.65Q541.94-21.65 538.94-20.6L538.94-20.6 537.94-20.25 537.04-23.45Q538.44-24.25 541.29-24.93 544.14-25.6 546.59-25.6L546.59-25.6Q551.94-25.6 554.19-23.48 556.44-21.35 556.44-17.5L556.44-17.5 556.44-3.4ZM544.44-10.25Q542.54-10 541.42-9.1 540.29-8.2 540.29-6.68 540.29-5.15 541.52-4.28 542.74-3.4 544.94-3.4L544.94-3.4Q549.09-3.4 551.74-5.65L551.74-5.65 551.74-11.05 544.44-10.25ZM576.24-2.15L576.24 0 563.09 0 563.09-2.15 567.29-3.8 567.29-34.65 563.09-34.65 563.09-37.65Q565.04-38.6 567.62-38.6 570.19-38.6 571.09-37.38 571.99-36.15 571.99-33.65L571.99-33.65 571.99-3.8 576.24-2.15ZM592.64 0.5L592.64 0.5Q587.09 0.5 583.51-2.75 579.94-6 579.94-12.15L579.94-12.15Q579.94-15.55 581.29-18.23 582.64-20.9 584.84-22.45L584.84-22.45Q589.39-25.6 594.79-25.6L594.79-25.6Q596.44-25.6 598.04-25.2 599.64-24.8 600.44-24.4L600.44-24.4 601.24-23.95 601.24-18.05 598.19-18.05 597.49-21.1Q596.79-21.65 594.79-21.65L594.79-21.65Q590.49-21.65 587.64-19.05 584.79-16.45 584.79-12.5 584.79-8.55 587.26-5.98 589.74-3.4 593.84-3.4L593.84-3.4Q595.84-3.4 597.56-3.83 599.29-4.25 599.99-4.7L599.99-4.7 600.69-5.1 602.14-2.5Q601.99-2.4 601.71-2.18 601.44-1.95 600.54-1.45 599.64-0.95 598.64-0.55L598.64-0.55Q595.94 0.5 592.64 0.5ZM618.83 0.5L618.83 0.5Q613.18 0.5 609.66-2.73 606.13-5.95 606.13-12.15 606.13-18.35 609.73-21.98 613.33-25.6 618.13-25.6L618.13-25.6Q629.53-25.6 629.53-12.1L629.53-12.1 610.98-12.1 610.98-11.85Q610.98-8.3 613.48-5.85 615.98-3.4 620.28-3.4L620.28-3.4Q622.13-3.4 623.78-3.83 625.43-4.25 626.18-4.7L626.18-4.7 626.88-5.1 628.33-2.5Q628.18-2.4 627.91-2.18 627.63-1.95 626.73-1.45 625.83-0.95 624.78-0.55L624.78-0.55Q622.13 0.5 618.83 0.5ZM624.88-15.3Q624.63-18.4 622.86-20.03 621.08-21.65 618.26-21.65 615.43-21.65 613.58-20.08 611.73-18.5 611.18-15.3L611.18-15.3 624.88-15.3Z" opacity="1" transform="matrix(1,0,0,1,0,0)" fill="#8eaec4" class="slogan-text-1" data-fill-palette-color="secondary" id="text-1"></path></svg></g></svg></g></svg></g></svg></g><g transform="matrix(1,0,0,1,87.60602484498634,0)"><svg viewBox="0 0 220.3079503100273 220.3079503100273" height="220.3079503100273" width="220.3079503100273"><g><svg></svg></g><g id="icon-0"><svg viewBox="0 0 220.3079503100273 220.3079503100273" height="220.3079503100273" width="220.3079503100273"><g><path d="M0 110.154c0-60.836 49.318-110.154 110.154-110.154 60.836 0 110.154 49.318 110.154 110.154 0 60.836-49.318 110.154-110.154 110.154-60.836 0-110.154-49.318-110.154-110.154zM110.154 210.779c55.574 0 100.625-45.051 100.625-100.625 0-55.574-45.051-100.625-100.625-100.625-55.574 0-100.625 45.051-100.625 100.625 0 55.574 45.051 100.625 100.625 100.625z" data-fill-palette-color="tertiary" fill="#336a86" stroke="transparent"></path></g><g transform="matrix(1,0,0,1,52.85397048179585,52.8797210048865)"><svg viewBox="0 0 114.60000934643561 114.54850830025431" height="114.54850830025431" width="114.60000934643561"><g><svg xmlns="http://www.w3.org/2000/svg" data-name="Layer 1" viewBox="6.0012077911328 6.0245759585020116 51.9987922088672 51.97542404149799" x="0" y="0" height="114.54850830025431" width="114.60000934643561" class="icon-dxe-0" data-fill-palette-color="accent" id="dxe-0"><path d="M56 22H12.829L25.414 9.414A2 2 0 0 0 22.586 6.586L6.587 22.585H6.586A2 2 0 0 0 6.336 22.892C6.306 22.939 6.283 22.993 6.255 23.044A2 2 0 0 0 6.153 23.235 2 2 0 0 0 6.09 23.437C6.073 23.494 6.051 23.55 6.04 23.608A2 2 0 0 0 6.04 24.392C6.05 24.45 6.072 24.506 6.09 24.562A2 2 0 0 0 6.153 24.766 2 2 0 0 0 6.253 24.956C6.283 25.007 6.306 25.061 6.338 25.11A2 2 0 0 0 6.586 25.414L6.587 25.415 22.586 41.415A2 2 0 0 0 25.414 38.584L12.83 26H54V34A2 2 0 0 0 58 34V24A2 2 0 0 0 56 22" fill="#283132" data-fill-palette-color="accent"></path><path d="M56 38H34.828L37.414 35.414A2 2 0 0 0 34.586 32.586L28.587 38.585H28.586A2 2 0 0 0 28.336 38.892C28.306 38.939 28.283 38.993 28.255 39.044A2 2 0 0 0 28.153 39.235 2 2 0 0 0 28.09 39.437C28.073 39.494 28.051 39.55 28.04 39.608A2 2 0 0 0 28.04 40.392C28.05 40.45 28.072 40.506 28.09 40.562A2 2 0 0 0 28.153 40.766 2 2 0 0 0 28.253 40.956C28.283 41.007 28.306 41.061 28.338 41.11A2 2 0 0 0 28.586 41.414L28.587 41.415 34.586 47.415A2 2 0 0 0 37.414 44.584L34.828 42H54V56A2 2 0 0 0 58 56V40A2 2 0 0 0 56 38" fill="#283132" data-fill-palette-color="accent"></path></svg></g></svg></g></svg></g></svg></g><g></g></svg></g><defs></defs></svg><rect width="232.87027957938832" height="247.2" fill="none" stroke="none" visibility="hidden"></rect></g></svg></g></svg>